<svg width="150px" height="30px" viewBox="0 0 150 30" version="1.1" xmlns="http://www.w3.org/2000/svg" xmlns:xlink="http://www.w3.org/1999/xlink">
    <!-- Generator: Sketch 51.3 (57544) - http://www.bohemiancoding.com/sketch -->
    <desc>Created with Sketch.</desc>
    <defs></defs>
    <g id="Page-1" stroke="none" stroke-width="1" fill="none" fill-rule="evenodd">
        <g id="Mobile" transform="translate(-83.000000, -68.000000)" fill="#66CBB8" stroke="#66CBB8">
            <g id="Group" transform="translate(65.000000, 68.000000)">
                <g id="heading" transform="translate(18.000000, 0.000000)">
                    <path d="M16.3691441,27.3203125 C15.2493469,27.9713574 14.1490974,28.4596338 13.0683629,28.7851562 C11.9876283,29.1106787 10.9199306,29.2734375 9.86523787,29.2734375 C7.156891,29.2734375 4.9791784,28.3652435 3.33203475,26.5488281 C1.6848911,24.7324128 0.861331625,22.3333482 0.861331625,19.3515625 C0.861331625,16.3958186 1.73697391,13.9902437 3.48828475,12.1347656 C5.23959559,10.2792876 7.52147381,9.3515625 10.3339879,9.3515625 C12.1959764,9.3515625 13.6608055,9.70637666 14.7285191,10.4160156 C15.7962328,11.1256546 16.3300816,12.0794211 16.3300816,13.2773438 C16.3300816,13.9153678 16.1282607,14.4296855 15.7246129,14.8203125 C15.320965,15.2109395 14.7806058,15.40625 14.1035191,15.40625 C13.8040385,15.40625 13.5045623,15.3541672 13.2050816,15.25 C12.905601,15.1458328 12.6061248,14.9960947 12.3066441,14.8007812 L12.3066441,11.5195312 C11.9941426,11.3372387 11.6751353,11.1972661 11.3496129,11.0996094 C11.0240904,11.0019526 10.6985728,10.953125 10.3730504,10.953125 C8.60220819,10.953125 7.17969637,11.6920499 6.10547225,13.1699219 C5.03124813,14.6477938 4.49414412,16.6171752 4.49414412,19.078125 C4.49414412,21.513033 5.102862,23.4303315 6.320316,24.8300781 C7.53777,26.2298247 9.19465448,26.9296875 11.2910191,26.9296875 C12.1634193,26.9296875 13.0162754,26.7897149 13.8496129,26.5097656 C14.6829504,26.2298163 15.5227857,25.8033883 16.3691441,25.2304688 L16.3691441,27.3203125 Z M29.0800806,4 L29.0800806,27.1640625 L32.2441431,27.1640625 C35.8899947,27.1640625 38.6145768,26.2037856 40.4179712,24.2832031 C42.2213657,22.3626206 43.1230494,19.4557486 43.1230494,15.5625 C43.1230494,11.6692514 42.227876,8.76888975 40.4375025,6.86132812 C38.647129,4.9537665 35.9160365,4 32.2441431,4 L29.0800806,4 Z M32.4003931,2.1640625 C37.0879166,2.1640625 40.7206927,3.33267061 43.2988306,5.66992188 C45.8769685,8.00717314 47.1660181,11.3046662 47.1660181,15.5625 C47.1660181,17.9323035 46.7461004,20.0384022 45.9062525,21.8808594 C45.0664046,23.7233165 43.8196722,25.269525 42.1660181,26.5195312 C40.9941373,27.4049523 39.6725359,28.0397116 38.2011744,28.4238281 C36.7298129,28.8079446 34.7962384,29 32.4003931,29 L22.5371119,29 L22.5371119,27.359375 L24.8027369,27.1640625 L25.4863306,26.5976562 L25.4863306,4.56640625 L24.8027369,4 L22.5371119,3.765625 L22.5371119,2.1640625 L32.4003931,2.1640625 Z M64.2128921,6.03125 L60.2675796,17.125 L68.3339859,17.125 L64.2128921,6.03125 Z M63.5878921,1.83203125 L66.2246109,1.83203125 L75.8144546,26.8710938 L78.2167984,27.359375 L78.2167984,29 L69.1347671,29 L69.1347671,27.359375 L71.6152359,27.1640625 L71.9082046,26.5976562 L69.0175796,18.9609375 L59.5839859,18.9609375 L56.7324234,26.5976562 L57.1425796,27.1640625 L59.7402359,27.359375 L59.7402359,29 L51.9082046,29 L51.9082046,27.359375 L54.2128921,26.8710938 L63.5878921,1.83203125 Z M83.1933599,29 L83.1933599,27.359375 L85.7519536,27.1640625 L86.4355474,26.5976562 L86.4355474,4.56640625 L85.7519536,4 L83.1933599,3.765625 L83.1933599,2.1640625 L93.3496099,2.1640625 L93.3496099,3.765625 L90.7910161,4 L90.1074224,4.56640625 L90.1074224,26.5976562 L90.7910161,27.1640625 L93.3496099,27.359375 L93.3496099,29 L83.1933599,29 Z M104.322265,24.2734375 C105.025394,24.2734375 105.621091,24.5208309 106.109374,25.015625 C106.597658,25.5104191 106.841796,26.1158818 106.841796,26.8320312 C106.841796,27.5351598 106.594403,28.1308569 106.099609,28.6191406 C105.604815,29.1074243 105.012373,29.3515625 104.322265,29.3515625 C103.606116,29.3515625 103.000653,29.1106795 102.505859,28.6289062 C102.011065,28.147133 101.763671,27.5481807 101.763671,26.8320312 C101.763671,26.1289027 102.011065,25.5266952 102.505859,25.0253906 C103.000653,24.524086 103.606116,24.2734375 104.322265,24.2734375 Z M119.865233,9.56640625 L121.427733,9.56640625 L121.427733,26.7148438 L122.111327,27.359375 L124.259764,27.5546875 L124.259764,29 L115.275389,29 L115.275389,27.5546875 L117.384764,27.359375 L118.068358,26.7148438 L118.068358,12.2421875 L115.275389,12.2421875 L115.275389,10.9921875 L119.865233,9.56640625 Z M120.021483,0.6796875 C120.672528,0.6796875 121.222653,0.907549805 121.671873,1.36328125 C122.121094,1.8190127 122.345702,2.36588223 122.345702,3.00390625 C122.345702,3.64193027 122.121094,4.18228945 121.671873,4.625 C121.222653,5.06771055 120.672528,5.2890625 120.021483,5.2890625 C119.383459,5.2890625 118.839844,5.06771055 118.390623,4.625 C117.941403,4.18228945 117.716795,3.64193027 117.716795,3.00390625 C117.716795,2.35286133 117.941403,1.80273662 118.390623,1.35351562 C118.839844,0.904294629 119.383459,0.6796875 120.021483,0.6796875 Z M139.822263,11.0703125 C138.155588,11.0703125 136.817711,11.8222581 135.808591,13.3261719 C134.799472,14.8300856 134.294919,16.8385291 134.294919,19.3515625 C134.294919,21.8645959 134.802727,23.8730394 135.818357,25.3769531 C136.833987,26.8808669 138.168609,27.6328125 139.822263,27.6328125 C141.501959,27.6328125 142.849602,26.8841221 143.865232,25.3867188 C144.880862,23.8893154 145.388669,21.8776168 145.388669,19.3515625 C145.388669,16.85155 144.877607,14.8463617 143.855466,13.3359375 C142.833326,11.8255133 141.488938,11.0703125 139.822263,11.0703125 Z M139.822263,9.3515625 C142.543631,9.3515625 144.776681,10.2857979 146.521482,12.1542969 C148.266282,14.0227958 149.138669,16.4218604 149.138669,19.3515625 C149.138669,22.2812646 148.263027,24.6803292 146.511716,26.5488281 C144.760405,28.4173271 142.53061,29.3515625 139.822263,29.3515625 C137.113916,29.3515625 134.890631,28.4205822 133.152341,26.5585938 C131.414051,24.6966053 130.544919,22.2942855 130.544919,19.3515625 C130.544919,16.4088395 131.407541,14.0065197 133.13281,12.1445312 C134.858079,10.2825428 137.087874,9.3515625 139.822263,9.3515625 Z" id="cDAI.io"></path>
                </g>
            </g>
        </g>
    </g>
</svg>
