<svg width="161px" height="44px" viewBox="0 0 161 44" version="1.1" xmlns="http://www.w3.org/2000/svg" xmlns:xlink="http://www.w3.org/1999/xlink">
    <!-- Generator: Sketch 51.3 (57544) - http://www.bohemiancoding.com/sketch -->
    <desc>Created with Sketch.</desc>
    <defs></defs>
    <g id="Page-1" stroke="none" stroke-width="1" fill="none" fill-rule="evenodd">
        <g id="Mobile" transform="translate(-79.000000, -54.000000)" fill="#66CBB8" stroke="#66CBB8">
            <g id="Group" transform="translate(65.000000, 54.000000)">
                <g id="heading" transform="translate(15.000000, 0.000000)">
                    <path d="M0.3125,0.63671875 L18.5351562,0.63671875 L25.3613281,7.34570312 L25.3613281,37.140625 L19.4140625,43 L0.3125,43 L0.3125,0.63671875 Z M16.4550781,34.9726562 L16.4550781,8.69335938 L9.18945312,8.69335938 L9.18945312,34.9726562 L16.4550781,34.9726562 Z M40.8125,43 L31.90625,43 L31.90625,7.34570312 L38.7324219,0.63671875 L57.2480469,0.63671875 L57.2480469,43 L48.3710938,43 L48.3710938,29.0839844 L40.8125,29.0839844 L40.8125,43 Z M48.3710938,21.0273438 L48.3710938,8.69335938 L40.8125,8.69335938 L40.8125,21.0273438 L48.3710938,21.0273438 Z M78.9394531,34.9726562 L78.9394531,43 L64.203125,43 L64.203125,34.9726562 L67.1328125,34.9726562 L67.1328125,8.6640625 L64.203125,8.6640625 L64.203125,0.63671875 L78.9394531,0.63671875 L78.9394531,8.6640625 L76.0097656,8.6640625 L76.0097656,34.9726562 L78.9394531,34.9726562 Z M85.7480469,43 L85.7480469,33.4785156 L94.7128906,33.4785156 L94.7128906,43 L85.7480469,43 Z M109.841797,43 L100.935547,43 L100.935547,7.34570312 L107.761719,0.63671875 L126.277344,0.63671875 L126.277344,43 L117.400391,43 L117.400391,29.0839844 L109.841797,29.0839844 L109.841797,43 Z M117.400391,21.0273438 L117.400391,8.69335938 L109.841797,8.69335938 L109.841797,21.0273438 L117.400391,21.0273438 Z M149.755859,34.9726562 L149.755859,28.4394531 L146.152344,28.4394531 L146.152344,20.9101562 L158.544922,20.9101562 L158.544922,43 L133.232422,43 L133.232422,0.63671875 L157.080078,0.63671875 L157.080078,8.69335938 L142.138672,8.69335938 L142.138672,34.9726562 L149.755859,34.9726562 Z" id="DAI.AG"></path>
                </g>
            </g>
        </g>
    </g>
</svg>
